<?xml version="1.0" encoding="UTF-8" standalone="no"?>
<!DOCTYPE svg PUBLIC "-//W3C//DTD SVG 1.1//EN" "http://www.w3.org/Graphics/SVG/1.1/DTD/svg11.dtd">
<svg width="100%" height="100%" viewBox="0 0 85 17" version="1.1" xmlns="http://www.w3.org/2000/svg" xmlns:xlink="http://www.w3.org/1999/xlink" xml:space="preserve" style="fill-rule:evenodd;clip-rule:evenodd;stroke-linejoin:round;stroke-miterlimit:1.41421;">
    <path id="Fill-1" d="M5.922,5.121L4.776,5.121C4.593,5.121 4.445,4.979 4.445,4.804L4.445,1.857C4.445,1.682 4.296,1.539 4.113,1.539L2.323,1.539C2.14,1.539 1.991,1.682 1.991,1.857L1.991,4.804C1.991,4.979 1.843,5.121 1.659,5.121L0.332,5.121C0.149,5.121 0,5.263 0,5.438L0,6.843C0,7.019 0.149,7.161 0.332,7.161L1.659,7.161C1.843,7.161 1.991,7.303 1.991,7.478L1.991,13.967C1.991,15.841 3.255,16.861 4.965,16.861L5.922,16.861C6.105,16.861 6.254,16.718 6.254,16.543L6.254,14.973C6.254,14.812 6.119,14.682 5.951,14.678L5.939,14.678L5.337,14.678C4.717,14.678 4.445,14.18 4.445,13.54L4.445,7.478C4.445,7.303 4.593,7.161 4.776,7.161L5.922,7.161C6.105,7.161 6.254,7.019 6.254,6.843L6.254,5.438C6.254,5.263 6.105,5.121 5.922,5.121ZM84.932,16.309L81.245,11.057C81.161,10.938 81.161,10.782 81.245,10.663L84.76,5.648C84.925,5.413 84.749,5.097 84.453,5.097L82.428,5.097C82.3,5.097 82.18,5.16 82.113,5.265L80.058,8.451C79.913,8.675 79.573,8.675 79.429,8.451L77.373,5.265C77.306,5.16 77.187,5.097 77.059,5.097L75.034,5.097C74.738,5.097 74.562,5.413 74.727,5.648L78.242,10.663C78.326,10.782 78.326,10.938 78.242,11.057L74.554,16.309C74.389,16.545 74.565,16.861 74.861,16.861L76.889,16.861C77.015,16.861 77.133,16.799 77.201,16.698L79.432,13.365C79.578,13.147 79.909,13.147 80.055,13.365L82.286,16.698C82.354,16.799 82.471,16.861 82.597,16.861L84.625,16.861C84.921,16.861 85.097,16.545 84.932,16.309ZM70.933,9.959L66.457,9.959C66.241,9.959 66.061,9.779 66.088,9.574C66.291,7.996 67.329,7.161 68.707,7.161C70.086,7.161 71.103,7.997 71.303,9.574C71.329,9.779 71.149,9.959 70.933,9.959ZM68.707,4.978C66.328,4.978 63.602,6.449 63.602,11.026C63.602,15.841 66.551,17.003 69.079,17.003C70.55,17.003 71.915,16.574 73.054,15.585C73.203,15.455 73.209,15.228 73.075,15.085L72.002,13.945C71.866,13.8 71.639,13.796 71.484,13.922C70.761,14.505 69.886,14.821 69.029,14.821C67.964,14.821 66.998,14.394 66.477,13.564C66.233,13.156 66.106,12.748 66.068,12.197C66.054,11.989 66.218,11.809 66.436,11.809L73.419,11.809C73.623,11.809 73.788,11.651 73.788,11.456L73.788,10.149C73.788,6.923 71.434,4.978 68.707,4.978ZM62.383,0.354L61.159,0.354C59.25,0.354 57.813,1.35 57.813,3.531L57.813,4.774C57.813,4.966 57.651,5.121 57.451,5.121L56.184,5.121C55.984,5.121 55.822,5.276 55.822,5.467L55.822,6.814C55.822,7.006 55.984,7.161 56.184,7.161L57.451,7.161C57.651,7.161 57.813,7.316 57.813,7.507L57.813,16.514C57.813,16.705 57.976,16.861 58.175,16.861L59.904,16.861C60.104,16.861 60.266,16.705 60.266,16.514L60.266,7.507C60.266,7.316 60.429,7.161 60.629,7.161L62.383,7.161C62.583,7.161 62.745,7.006 62.745,6.814L62.745,5.467C62.745,5.276 62.583,5.121 62.383,5.121L60.629,5.121C60.429,5.121 60.266,4.966 60.266,4.774L60.266,3.769C60.266,3.034 60.539,2.535 61.357,2.535L62.383,2.535C62.583,2.535 62.745,2.38 62.745,2.189L62.745,0.7C62.745,0.509 62.583,0.354 62.383,0.354ZM53.214,0L53.182,0C52.308,0 51.599,0.679 51.599,1.516C51.599,2.353 52.308,3.031 53.182,3.031L53.214,3.031C54.089,3.031 54.798,2.353 54.798,1.516C54.798,0.679 54.089,0 53.214,0ZM53.948,5.121L52.449,5.121C52.185,5.121 51.972,5.325 51.972,5.577L51.972,16.404C51.972,16.656 52.185,16.861 52.449,16.861L53.948,16.861C54.211,16.861 54.425,16.656 54.425,16.404L54.425,5.577C54.425,5.325 54.211,5.121 53.948,5.121ZM47.203,10.078C46.732,9.959 46.237,9.911 45.667,9.84C45.146,9.769 44.626,9.769 44.056,9.746C42.792,9.675 42.395,9.153 42.395,8.607C42.395,7.777 42.94,7.161 44.552,7.161C45.761,7.161 46.659,7.497 47.539,8.037C47.727,8.152 47.975,8.112 48.103,7.937L48.984,6.734C49.111,6.561 49.076,6.319 48.898,6.195C47.776,5.414 46.453,4.978 44.552,4.978C41.974,4.978 39.942,6.188 39.942,8.584C39.942,10.386 41.156,11.477 42.94,11.832C43.833,11.999 44.75,11.88 45.642,12.023C46.509,12.164 47.228,12.402 47.228,13.279C47.228,14.299 46.187,14.821 44.774,14.821C43.255,14.821 42.159,14.416 41.177,13.59C41,13.44 40.732,13.451 40.581,13.625L39.608,14.755C39.464,14.923 39.486,15.178 39.662,15.314C41.144,16.465 42.795,17.003 44.576,17.003C47.451,17.003 49.682,15.651 49.682,13.398C49.682,11.311 48.616,10.457 47.203,10.078ZM33.953,4.978C32.59,4.978 31.513,5.417 30.731,6.354C30.698,6.394 30.657,6.406 30.657,6.354L30.657,5.523C30.657,5.288 30.458,5.097 30.213,5.097L28.648,5.097C28.403,5.097 28.204,5.288 28.204,5.523L28.204,16.435C28.204,16.67 28.403,16.861 28.648,16.861L30.213,16.861C30.458,16.861 30.657,16.67 30.657,16.435L30.657,9.864C30.657,8.228 31.723,7.303 33.136,7.303C34.548,7.303 35.614,8.228 35.614,9.864L35.614,16.435C35.614,16.67 35.813,16.861 36.058,16.861L37.622,16.861C37.868,16.861 38.067,16.67 38.067,16.435L38.067,9.034C38.067,6.377 35.861,4.978 33.953,4.978ZM23.888,12.734C23.888,13.422 23.739,13.92 23.417,14.228C23.02,14.631 22.227,14.821 21.062,14.821C19.377,14.821 18.683,14.133 18.683,13.303C18.683,12.426 19.377,11.856 20.864,11.856L23.888,11.856L23.888,12.734ZM24.904,5.809C24.012,5.216 22.748,4.978 21.187,4.978C19.598,4.978 18.374,5.384 17.494,6.195C17.335,6.342 17.347,6.591 17.504,6.739L18.554,7.728C18.709,7.874 18.951,7.872 19.111,7.731C19.557,7.338 20.249,7.161 21.31,7.161C23.095,7.161 23.888,7.54 23.888,8.679L23.888,9.959L22.872,9.959L20.393,9.959C17.742,9.959 16.403,11.524 16.403,13.422C16.403,14.631 16.949,15.651 17.965,16.291C18.683,16.742 19.625,17.003 20.74,17.003C22.425,17.003 23.447,16.388 23.789,15.817C23.834,15.742 23.888,15.772 23.888,15.817L23.888,16.475C23.888,16.688 24.068,16.861 24.291,16.861L25.913,16.861C26.136,16.861 26.316,16.688 26.316,16.475L26.316,8.797C26.316,7.374 25.796,6.449 24.904,5.809ZM16.194,5.518C15.564,5.153 14.892,4.978 14.147,4.978C12.784,4.978 11.718,5.429 10.925,6.354L10.851,6.354L10.851,5.437C10.851,5.249 10.692,5.097 10.495,5.097L8.753,5.097C8.556,5.097 8.397,5.249 8.397,5.437L8.397,16.521C8.397,16.708 8.556,16.861 8.753,16.861L10.495,16.861C10.692,16.861 10.851,16.708 10.851,16.521L10.851,9.793C10.851,8.014 12.065,7.303 13.28,7.303C13.837,7.303 14.205,7.385 14.642,7.673C14.799,7.777 15.016,7.735 15.126,7.585L16.29,6.002C16.405,5.844 16.366,5.618 16.194,5.518Z" style="fill:rgb(0,98,198);"/>
</svg>